# xmcd
#
# Track frame offsets:
#	150
#	22977
#	47061
#	65573
#	84102
#	103618
#	121058
#	139571
#	158057
#	173535
#	194902
#	218203
#	240307
#	262312
#
# Disc length: 3712 seconds
#
# Revision: 0
# Processed by: cddbd v1.5.2PL0 Copyright (c) Steve Scherf et al.
# Submitted via: dBpowerAMP V4.0
#
DISCID=b90e7e0e
DTITLE=Cold Chillin' - Choice Cuts
DYEAR=1900
DGENRE=Hip Hop
TTITLE0=Biz Markie - Nobody Beats The Biz
TTITLE1=Big Daddy Kane - Ain't No Half Steppin'
TTITLE2=Masta Ace - Music Man
TTITLE3=MC Shan - Jane Stop This Crazy Thing
TTITLE4=Kool G Rap and DJ Polo - Streets of New York
TTITLE5=Masta Ace - Brooklyn Battles
TTITLE6=Kid Capri - The Apollo
TTITLE7=Big Daddy Kane - Set It Off
TTITLE8=The Genius - Words From the Genius (RZA Remix)
TTITLE9=Grand Daddy IU - Something New
TTITLE10=Masta Ace - Me And the Biz
TTITLE11=Grand Daddy IU - Sugar Free
TTITLE12=Diamond Shell - The Grand Imperial Diamond Shell
TTITLE13=TCF Crew - I Ain't The One
EXTD=Cold Chillin' - Choice Cuts
EXTT0=
EXTT1=
EXTT2=
EXTT3=
EXTT4=
EXTT5=
EXTT6=
EXTT7=
EXTT8=
EXTT9=
EXTT10=
EXTT11=
EXTT12=
EXTT13=
PLAYORDER=
